<?xml version="1.0" standalone="no"?>
<!DOCTYPE svg PUBLIC "-//W3C//DTD SVG 20010904//EN"
 "http://www.w3.org/TR/2001/REC-SVG-20010904/DTD/svg10.dtd">
<svg version="1.0" xmlns="http://www.w3.org/2000/svg"
 width="800.000000pt" height="800.000000pt" viewBox="0 0 800.000000 800.000000"
 preserveAspectRatio="xMidYMid meet">
<metadata>
Created by potrace 1.14, written by Peter Selinger 2001-2017
</metadata>
<g transform="translate(0.000000,800.000000) scale(0.100000,-0.100000)"
fill="#000000" stroke="none">
<path d="M954 7078 c-55 -28 -91 -48 -132 -73 -10 -5 -125 -73 -257 -149 -132
-76 -261 -152 -288 -167 -26 -16 -49 -29 -52 -29 -3 0 -29 -16 -60 -35 -65
-42 -99 -76 -128 -130 l-22 -40 -2 -2446 -3 -2446 21 -49 c11 -27 31 -61 44
-77 27 -30 173 -127 193 -127 6 0 12 -4 12 -10 0 -5 6 -10 13 -10 7 0 19 -6
25 -12 7 -7 16 -13 20 -13 4 -1 25 -12 47 -27 23 -14 63 -38 90 -53 28 -14 64
-34 80 -44 17 -10 122 -71 234 -136 199 -116 206 -119 269 -121 35 -2 74 3 86
9 116 65 160 160 127 276 -13 46 -84 124 -124 137 -12 4 -24 9 -27 13 -3 3
-25 17 -50 30 -25 14 -63 36 -85 50 -22 14 -43 25 -47 26 -4 0 -13 6 -20 12
-6 7 -18 13 -25 13 -7 0 -13 5 -13 10 0 6 -5 10 -11 10 -12 0 -145 76 -171 98
-10 8 -18 11 -18 7 0 -4 -8 -1 -18 7 -9 8 -59 38 -109 67 -51 29 -95 56 -98
62 -3 5 -6 1033 -6 2286 0 1847 3 2279 13 2288 19 18 396 235 408 235 5 0 10
3 10 8 0 4 10 12 23 18 62 32 142 79 145 86 2 4 8 8 14 8 15 0 129 71 154 96
82 80 80 233 -3 310 -44 41 -84 57 -144 60 -46 2 -67 -3 -115 -28z"/>
<path d="M2700 7102 c-25 -4 -158 -66 -215 -101 -34 -21 -42 -25 -255 -147
-85 -49 -156 -92 -158 -96 -2 -5 -7 -8 -12 -8 -5 0 -48 -23 -97 -51 -48 -28
-106 -61 -128 -74 -129 -73 -462 -266 -475 -275 -8 -6 -27 -16 -42 -23 -16 -6
-28 -15 -28 -19 0 -4 -4 -8 -10 -8 -5 0 -55 -27 -111 -60 -55 -33 -105 -60
-110 -60 -5 0 -9 -3 -9 -7 0 -5 -19 -17 -42 -28 -59 -28 -122 -95 -144 -152
-18 -46 -19 -122 -18 -2008 0 -1579 2 -1967 13 -1998 15 -43 70 -101 119 -124
44 -21 130 -20 173 3 51 26 89 56 89 71 0 7 4 13 9 13 5 0 12 12 16 28 5 15
10 34 12 42 3 8 5 862 6 1897 1 1035 4 1883 7 1886 5 4 278 162 390 225 25 14
73 43 108 64 34 21 64 38 67 38 3 0 83 46 150 87 11 7 27 15 35 19 8 4 47 26
85 49 39 23 90 53 115 67 25 14 128 74 230 133 102 59 203 118 226 131 23 13
45 19 50 14 5 -4 32 -21 61 -37 28 -15 88 -49 133 -75 46 -27 87 -48 91 -48 5
0 9 -4 9 -10 0 -5 4 -10 10 -10 5 0 49 -24 97 -52 48 -29 96 -56 105 -60 9 -4
35 -18 57 -32 l41 -26 0 -2123 c0 -1167 2 -2129 3 -2139 12 -69 91 -150 159
-163 65 -12 74 -12 116 1 58 17 108 56 135 107 l22 42 0 2220 0 2220 -23 47
c-13 26 -40 62 -60 80 -20 18 -192 123 -382 232 -190 110 -353 206 -362 214
-10 8 -18 11 -18 7 0 -4 -8 -1 -17 7 -48 41 -167 78 -223 70z"/>
<path d="M5216 7100 c-41 -13 -136 -64 -136 -72 0 -5 -4 -8 -9 -8 -5 0 -49
-23 -98 -51 -48 -29 -113 -65 -143 -82 -30 -17 -56 -34 -58 -39 -2 -4 -8 -8
-13 -8 -6 0 -48 -22 -95 -50 -47 -27 -89 -50 -93 -50 -5 0 -11 -4 -13 -8 -1
-4 -50 -34 -106 -66 -149 -84 -204 -139 -220 -219 -4 -17 -6 -1128 -6 -2467 0
-2272 1 -2437 17 -2472 36 -79 116 -139 357 -271 30 -17 71 -41 90 -54 19 -12
40 -23 47 -23 7 0 13 -4 13 -10 0 -5 5 -10 11 -10 6 0 45 -20 86 -45 40 -25
75 -45 78 -45 2 0 39 -22 82 -48 149 -91 189 -107 273 -106 78 1 101 8 195 65
28 16 58 33 68 36 9 3 17 9 17 14 0 5 4 9 9 9 6 0 76 39 158 86 81 48 173 100
203 117 30 17 57 33 60 36 3 3 21 14 40 25 61 33 124 68 162 93 21 12 41 23
45 23 3 0 14 6 22 14 9 7 45 28 81 47 36 18 67 36 70 39 3 3 30 20 60 37 30
17 111 64 180 104 69 40 165 95 213 123 49 28 109 63 134 77 55 32 122 90 123
107 0 6 4 12 9 12 8 0 25 56 22 72 0 5 2 8 7 8 4 0 7 226 6 503 0 399 -3 511
-14 547 -10 31 -32 63 -72 103 -32 31 -62 57 -67 57 -4 0 -160 88 -347 196
-186 108 -364 210 -394 227 -30 17 -57 33 -60 36 -6 7 -16 9 -75 20 -80 14
-167 -30 -213 -109 l-27 -45 0 -545 0 -545 28 -48 c68 -116 231 -143 330 -55
74 67 76 74 77 427 0 173 2 316 3 317 2 3 179 -96 227 -126 8 -6 33 -19 55
-31 22 -12 56 -33 76 -46 l36 -24 -1 -348 c-1 -382 2 -364 -66 -400 -57 -29
-83 -45 -100 -57 -8 -7 -37 -24 -65 -39 -27 -14 -68 -37 -90 -51 -22 -13 -51
-29 -65 -35 -13 -6 -27 -13 -30 -17 -3 -4 -25 -18 -50 -31 -25 -14 -76 -43
-115 -66 -118 -70 -160 -93 -169 -93 -5 0 -12 -4 -15 -9 -3 -5 -85 -54 -181
-110 -96 -55 -235 -135 -309 -177 -220 -128 -188 -117 -244 -84 -26 15 -52 28
-57 28 -6 0 -10 5 -10 10 0 6 -4 10 -10 10 -5 0 -33 14 -62 31 -54 33 -89 53
-155 90 -21 12 -81 47 -133 78 -52 31 -104 61 -115 66 -20 11 -20 22 -22 2295
l-3 2285 28 22 c15 12 30 22 33 23 4 0 100 54 214 120 114 66 212 120 216 120
5 0 9 3 9 8 0 4 17 15 38 25 105 51 228 134 255 173 41 59 49 152 17 215 -39
76 -97 117 -178 124 -26 3 -60 0 -76 -5z"/>
<path d="M6900 7095 c-52 -11 -194 -78 -220 -105 -3 -3 -23 -14 -45 -25 -22
-11 -42 -23 -45 -26 -3 -3 -30 -19 -60 -36 -30 -17 -132 -75 -226 -130 -94
-55 -177 -103 -185 -106 -8 -4 -30 -17 -49 -28 -157 -94 -341 -199 -350 -199
-5 0 -10 -4 -10 -9 0 -5 -8 -11 -17 -14 -10 -4 -38 -18 -63 -33 -25 -15 -65
-38 -90 -52 -25 -13 -49 -28 -55 -32 -11 -9 -234 -136 -279 -160 -58 -30 -119
-106 -136 -170 -10 -35 -13 -482 -13 -1980 0 -1064 3 -1954 7 -1977 9 -51 72
-127 125 -149 79 -34 181 -15 237 44 43 44 48 53 60 92 6 23 10 671 9 1914 l0
1878 30 22 c16 11 39 26 50 32 11 6 138 79 283 162 144 84 265 152 267 152 3
0 11 5 18 11 22 19 790 459 802 459 10 0 81 -37 135 -70 14 -8 194 -113 300
-174 25 -14 75 -43 112 -63 66 -37 68 -39 68 -78 1 -50 1 -1545 1 -1601 l-1
-40 -162 -94 c-90 -52 -172 -99 -183 -104 -11 -6 -22 -14 -25 -17 -3 -3 -45
-28 -95 -55 -324 -181 -350 -204 -362 -314 -12 -109 47 -195 162 -235 73 -25
136 2 483 206 45 27 87 49 92 49 6 0 10 5 10 10 0 6 4 10 10 10 5 0 70 36 146
80 75 44 138 80 140 80 2 0 35 20 73 44 77 50 124 109 141 177 7 31 10 343 8
1029 l-3 985 -22 40 c-40 72 -72 99 -193 167 -25 14 -117 67 -205 118 -88 51
-175 101 -192 111 -124 71 -278 161 -288 168 -12 10 -69 30 -110 40 -16 4 -55
3 -85 -4z"/>
<path d="M2666 6133 c-21 -7 -63 -28 -94 -47 -31 -18 -145 -84 -252 -146 -107
-62 -210 -121 -227 -131 -18 -11 -48 -27 -65 -38 -164 -92 -261 -157 -288
-188 -38 -46 -63 -128 -57 -188 2 -25 1 -45 -2 -45 -3 0 -6 -38 -6 -85 0 -47
4 -85 8 -85 5 0 6 -4 2 -9 -4 -8 -6 -61 -5 -203 0 -10 0 -46 0 -80 0 -35 2
-74 3 -88 2 -14 1 -29 -1 -34 -3 -5 -4 -50 -3 -100 3 -114 3 -111 -1 -170 -4
-70 41 -160 100 -199 107 -72 256 -32 319 85 16 30 18 74 19 481 1 247 5 451
9 455 8 8 89 57 125 74 14 7 27 15 30 18 5 5 40 25 100 57 19 10 37 20 40 23
8 8 90 51 91 48 1 -2 2 -145 3 -318 2 -282 4 -319 20 -350 42 -82 106 -123
190 -124 65 0 83 4 129 32 42 27 74 68 89 115 6 20 9 230 9 555 -1 491 -2 526
-20 565 -46 102 -164 156 -265 120z"/>
<path d="M6889 6136 c-25 -7 -58 -21 -75 -32 -16 -12 -36 -24 -44 -27 -8 -4
-33 -18 -55 -31 -22 -14 -57 -34 -77 -45 -64 -35 -83 -46 -88 -51 -3 -3 -21
-14 -40 -24 -19 -10 -75 -42 -125 -71 -49 -29 -162 -94 -250 -145 -88 -51
-172 -107 -188 -124 -15 -17 -34 -55 -43 -85 -48 -161 98 -309 266 -269 14 3
124 63 245 133 261 152 303 175 308 175 2 0 3 -101 3 -225 l-1 -225 -30 -21
c-16 -11 -39 -24 -50 -30 -11 -5 -42 -23 -70 -39 -27 -17 -57 -34 -65 -37 -8
-4 -17 -9 -20 -12 -6 -7 -35 -24 -93 -54 -23 -11 -44 -24 -47 -27 -9 -10 -291
-170 -301 -170 -5 0 -9 -4 -9 -10 0 -5 -5 -10 -12 -10 -36 0 -113 -90 -125
-147 -18 -86 20 -199 77 -227 8 -4 31 -15 50 -26 45 -24 130 -21 185 7 45 22
55 28 257 147 81 47 150 86 152 86 2 0 48 27 103 60 54 33 103 60 110 60 6 0
13 4 15 8 2 5 46 32 98 62 52 30 109 68 127 86 18 17 35 29 38 26 3 -3 5 4 5
16 0 11 4 22 8 24 5 2 15 23 23 48 12 37 14 134 13 555 -1 568 1 550 -70 619
-54 52 -130 72 -205 52z"/>
<path d="M2675 4207 c-17 -6 -52 -23 -80 -39 -27 -16 -83 -47 -122 -69 -40
-22 -75 -45 -79 -50 -3 -5 -14 -9 -25 -9 -10 0 -19 -4 -19 -8 0 -4 -19 -18
-42 -30 -24 -13 -52 -28 -63 -35 -11 -7 -47 -28 -80 -47 -33 -19 -73 -43 -90
-52 -16 -10 -41 -24 -55 -30 -14 -7 -27 -15 -30 -19 -3 -3 -32 -20 -64 -38
-171 -93 -223 -147 -241 -252 -3 -18 -8 -35 -10 -37 -2 -2 1 -17 5 -33 5 -18
5 -29 -1 -29 -6 0 -8 -4 -5 -9 6 -9 6 -18 6 -171 0 -47 1 -92 1 -100 0 -8 0
-58 -1 -110 -1 -52 -1 -99 0 -105 1 -5 2 -14 1 -20 -3 -11 -3 -446 -1 -460 1
-5 2 -26 1 -45 -1 -39 -1 -197 0 -220 0 -8 0 -58 -1 -110 -1 -52 -1 -99 0
-105 1 -5 1 -14 0 -20 -2 -12 -2 -766 0 -780 1 -5 2 -30 1 -55 -2 -67 17 -124
55 -163 50 -55 89 -71 164 -71 73 0 112 16 160 66 60 64 58 24 58 1282 -1 973
1 1150 13 1157 27 17 95 57 204 119 61 35 123 72 138 83 16 10 31 16 35 13 3
-4 7 -474 7 -1044 l1 -1037 21 -40 c42 -79 108 -118 198 -119 38 0 72 7 93 18
49 25 98 82 112 129 10 33 12 315 12 1285 -1 1234 -1 1243 -21 1286 -31 63
-67 97 -125 116 -51 17 -95 19 -131 7z"/>
<path d="M7715 3723 c-44 -12 -104 -64 -128 -113 l-25 -50 0 -922 1 -922 -29
-23 c-16 -13 -32 -23 -37 -23 -4 0 -26 -12 -50 -27 -23 -14 -67 -40 -97 -56
-30 -16 -63 -37 -72 -45 -10 -8 -18 -11 -18 -6 0 5 -4 5 -8 -1 -8 -11 -27 -23
-112 -69 -30 -16 -56 -33 -58 -38 -2 -4 -8 -8 -13 -8 -4 0 -43 -20 -85 -45
-41 -25 -78 -45 -80 -45 -6 0 -83 -50 -108 -70 -30 -24 -66 -111 -66 -160 1
-78 52 -160 123 -197 47 -24 122 -24 183 -1 30 11 54 25 54 29 0 5 4 9 9 9 5
0 44 20 85 45 42 25 79 45 82 45 3 0 18 8 32 19 15 10 47 29 72 43 25 14 64
36 86 49 23 13 129 74 235 136 107 62 209 127 227 144 32 32 79 109 66 109 -4
0 -1 6 5 13 18 22 14 2012 -4 2053 -19 43 -77 100 -121 119 -35 14 -107 18
-149 8z"/>
</g>
</svg>
